<svg id="Layer_1" data-name="Layer 1" xmlns="http://www.w3.org/2000/svg" viewBox="0 0 102.29 16.76"><defs><style>.cls-1{fill:#fff;}</style></defs><title>oxo-group-logo-white</title><path class="cls-1" d="M59.25.27a4.59,4.59,0,0,1,3.11,1.22.26.26,0,0,1,0,.37l-.58.62c-.1.11-.2.1-.33,0a3.41,3.41,0,0,0-2.18-.89A3.32,3.32,0,0,0,56.07,5a3.31,3.31,0,0,0,3.22,3.39,4.52,4.52,0,0,0,1.92-.44V6.46H60a.25.25,0,0,1-.25-.24V5.46A.25.25,0,0,1,60,5.21h2.33a.24.24,0,0,1,.23.25c0,1,0,2.12,0,3.17a.32.32,0,0,1-.1.21,6.28,6.28,0,0,1-3.18.87A4.65,4.65,0,0,1,54.64,5,4.66,4.66,0,0,1,59.25.27Z"/><path class="cls-1" d="M65.44.65a.24.24,0,0,1,.24-.24h3.49A2.79,2.79,0,0,1,72,3.21a2.91,2.91,0,0,1-1.9,2.66L71.82,9.2a.25.25,0,0,1-.22.38h-1a.23.23,0,0,1-.2-.12L68.69,6H66.76V9.33a.26.26,0,0,1-.25.25h-.83a.25.25,0,0,1-.24-.25Zm3.62,4.21a1.61,1.61,0,0,0,1.57-1.62,1.58,1.58,0,0,0-1.57-1.56H66.78V4.86Z"/><path class="cls-1" d="M78.8.27A4.66,4.66,0,0,1,83.41,5,4.61,4.61,0,1,1,74.2,5,4.65,4.65,0,0,1,78.8.27Zm0,8.13A3.37,3.37,0,0,0,82.13,5a3.33,3.33,0,1,0-6.65,0A3.37,3.37,0,0,0,78.8,8.4Z"/><path class="cls-1" d="M86,.65a.25.25,0,0,1,.25-.24h.86a.24.24,0,0,1,.24.24V6.06a2.15,2.15,0,1,0,4.28,0V.65a.24.24,0,0,1,.24-.24h.86A.24.24,0,0,1,93,.65V6.16a3.49,3.49,0,1,1-7,0Z"/><path class="cls-1" d="M96.26.65A.24.24,0,0,1,96.5.41h2.92a2.89,2.89,0,0,1,2.87,2.89,2.91,2.91,0,0,1-2.85,3H97.58V9.33a.26.26,0,0,1-.24.25H96.5a.25.25,0,0,1-.24-.25ZM99.35,5A1.64,1.64,0,0,0,101,3.29a1.59,1.59,0,0,0-1.62-1.57H97.58V5Z"/><polygon class="cls-1" points="22.55 8.11 17.3 0.33 21.24 0.33 24.57 5.31 27.84 0.33 31.63 0.33 26.44 8.18 31.91 16.45 28.16 16.45 24.41 10.91 20.66 16.45 17.05 16.45 22.55 8.11"/><path class="cls-1" d="M8.49,0A8.23,8.23,0,0,1,17,8.38a8.23,8.23,0,0,1-8.5,8.38A8.23,8.23,0,0,1,0,8.38,8.23,8.23,0,0,1,8.49,0m0,13.72a5.18,5.18,0,0,0,5.13-5.34A5.18,5.18,0,0,0,8.49,3,5.18,5.18,0,0,0,3.37,8.38a5.17,5.17,0,0,0,5.12,5.34"/><path class="cls-1" d="M40.81,0a8.23,8.23,0,0,1,8.5,8.38,8.23,8.23,0,0,1-8.5,8.38,8.23,8.23,0,0,1-8.49-8.38A8.23,8.23,0,0,1,40.81,0m0,13.72a5.17,5.17,0,0,0,5.13-5.34,5.13,5.13,0,1,0-10.25,0,5.17,5.17,0,0,0,5.12,5.34"/></svg>